# Blender v2.91.2 OBJ File: 'warhammer.blend'
# www.blender.org
mtllib warhammer.mtl
o warhammer_Cube.002
v 0.437500 0.687500 0.125000
v 0.437500 0.937500 0.125000
v 0.437500 0.687500 -0.125000
v 0.437500 0.937500 -0.125000
v 0.375000 1.000000 0.187500
v 0.375000 1.000000 -0.187500
v 0.375000 0.625000 0.187500
v 0.375000 0.625000 -0.187500
v 0.312500 1.000000 0.187500
v 0.312500 1.000000 -0.187500
v 0.312500 0.625000 0.187500
v 0.312500 0.625000 -0.187500
v 0.250000 0.937500 0.125000
v 0.250000 0.937500 -0.125000
v 0.250000 0.687500 0.125000
v 0.250000 0.687500 -0.125000
v 0.218750 0.921875 0.109375
v 0.218750 0.921875 -0.109375
v 0.218750 0.703125 0.109375
v 0.218750 0.703125 -0.109375
v 0.218750 0.906250 0.093750
v 0.218750 0.906250 -0.093750
v 0.218750 0.718750 0.093750
v 0.218750 0.718750 -0.093750
v 0.187500 0.906250 0.093750
v 0.187500 0.906250 -0.093750
v 0.187500 0.718750 0.093750
v 0.187500 0.718750 -0.093750
v 0.187500 0.953125 0.187500
v 0.187500 0.953125 -0.187500
v 0.187500 0.625000 0.187500
v 0.187500 0.625000 -0.187500
v 0.187500 1.000000 0.125000
v 0.187500 1.000000 -0.125000
v 0.062500 0.625000 0.062500
v 0.062500 0.625000 -0.062500
v 0.062500 -1.000000 0.062500
v 0.062500 -1.000000 -0.062500
v -0.437500 0.687500 0.125000
v -0.437500 0.937500 0.125000
v -0.437500 0.687500 -0.125000
v -0.437500 0.937500 -0.125000
v -0.375000 1.000000 0.187500
v -0.375000 1.000000 -0.187500
v -0.375000 0.625000 0.187500
v -0.375000 0.625000 -0.187500
v -0.312500 1.000000 0.187500
v -0.312500 1.000000 -0.187500
v -0.312500 0.625000 0.187500
v -0.312500 0.625000 -0.187500
v -0.250000 0.937500 0.125000
v -0.250000 0.937500 -0.125000
v -0.250000 0.687500 0.125000
v -0.250000 0.687500 -0.125000
v -0.218750 0.921875 0.109375
v -0.218750 0.921875 -0.109375
v -0.218750 0.703125 0.109375
v -0.218750 0.703125 -0.109375
v -0.218750 0.906250 0.093750
v -0.218750 0.906250 -0.093750
v -0.218750 0.718750 0.093750
v -0.218750 0.718750 -0.093750
v -0.187500 0.906250 0.093750
v -0.187500 0.906250 -0.093750
v -0.187500 0.718750 0.093750
v -0.187500 0.718750 -0.093750
v -0.187500 0.953125 0.187500
v -0.187500 0.953125 -0.187500
v -0.187500 0.625000 0.187500
v -0.187500 0.625000 -0.187500
v -0.187500 1.000000 0.125000
v -0.187500 1.000000 -0.125000
v 0.000000 0.953125 0.187500
v 0.000000 0.953125 -0.187500
v 0.000000 0.625000 0.187500
v 0.000000 0.625000 -0.187500
v 0.000000 1.000000 0.125000
v 0.000000 1.000000 -0.125000
v 0.000000 0.625000 -0.062500
v 0.000000 0.625000 0.062500
v -0.062500 0.625000 0.062500
v -0.062500 0.625000 -0.062500
v 0.000000 -1.000000 -0.062500
v 0.000000 -1.000000 0.062500
v -0.062500 -1.000000 0.062500
v -0.062500 -1.000000 -0.062500
vt 0.750000 0.687500
vt 0.750000 0.937500
vt 0.500000 0.937500
vt 0.500000 0.687500
vt 0.750000 0.937500
vt 0.750000 0.687500
vt 0.812500 0.625000
vt 0.812500 1.000000
vt 0.750000 0.937500
vt 0.812500 1.000000
vt 0.812500 0.625000
vt 0.750000 0.687500
vt 0.812500 0.625000
vt 0.750000 0.937500
vt 0.812500 1.000000
vt 0.875000 1.000000
vt 0.875000 0.625000
vt 0.875000 0.625000
vt 0.875000 0.625000
vt 0.875000 1.000000
vt 0.875000 1.000000
vt 0.937500 0.687500
vt 0.937500 0.937500
vt 0.937500 0.687500
vt 0.937500 0.937500
vt 0.937500 0.937500
vt 0.937500 0.687500
vt 1.000000 0.687500
vt 1.000000 0.937500
vt 1.000000 0.937500
vt 1.000000 0.937500
vt 1.000000 0.687500
vt 1.000000 0.687500
vt 0.093750 0.968750
vt 0.093750 0.906250
vt 0.125000 0.875000
vt 0.125000 1.000000
vt 0.031250 0.906250
vt 0.000000 0.875000
vt 0.031250 0.968750
vt 0.000000 1.000000
vt 0.218750 0.062500
vt 0.125000 0.062500
vt 0.125000 0.031250
vt 0.218750 0.031250
vt 0.218750 0.062500
vt 0.125000 0.062500
vt 0.125000 0.031250
vt 0.218750 0.031250
vt 0.218750 0.062500
vt 0.218750 0.031250
vt 0.125000 0.062500
vt 0.125000 0.031250
vt 0.906250 0.250000
vt 0.906250 0.062500
vt 1.000000 0.000000
vt 1.000000 0.312500
vt 0.718750 0.062500
vt 0.625000 0.000000
vt 0.718750 0.250000
vt 0.625000 0.312500
vt 0.593750 0.375000
vt 0.593750 0.312500
vt 0.406250 0.312500
vt 0.406250 0.375000
vt 0.937500 0.375000
vt 0.687500 0.375000
vt 0.593750 0.625000
vt 0.406250 0.625000
vt 0.593750 0.000000
vt 0.406250 0.000000
vt 0.593750 0.375000
vt 0.593750 0.312500
vt 0.406250 0.312500
vt 0.406250 0.375000
vt 0.593750 0.312500
vt 0.593750 0.000000
vt 0.406250 0.000000
vt 0.406250 0.312500
vt 0.500000 0.625000
vt 0.312500 0.625000
vt 0.312500 0.750000
vt 0.375000 0.750000
vt 0.500000 1.000000
vt 0.375000 0.875000
vt 0.312500 1.000000
vt 0.312500 0.875000
vt 0.031250 0.812500
vt 0.062500 0.812500
vt 0.062500 0.000000
vt 0.031250 0.000000
vt -0.000000 0.812500
vt -0.000000 0.000000
vt 0.062500 0.812500
vt 0.031250 0.812500
vt 0.031250 0.000000
vt 0.062500 0.000000
vt 0.125000 0.000000
vt 0.093750 0.000000
vt 0.093750 0.062500
vt 0.125000 0.062500
vt 0.750000 0.687500
vt 0.500000 0.687500
vt 0.500000 0.937500
vt 0.750000 0.937500
vt 0.750000 0.687500
vt 0.812500 0.625000
vt 0.812500 1.000000
vt 0.750000 0.937500
vt 0.812500 1.000000
vt 0.812500 0.625000
vt 0.750000 0.687500
vt 0.812500 1.000000
vt 0.750000 0.937500
vt 0.812500 0.625000
vt 0.875000 1.000000
vt 0.875000 0.625000
vt 0.875000 1.000000
vt 0.875000 0.625000
vt 0.875000 1.000000
vt 0.875000 0.625000
vt 0.937500 0.687500
vt 0.937500 0.937500
vt 0.937500 0.687500
vt 0.937500 0.937500
vt 0.937500 0.687500
vt 0.937500 0.937500
vt 1.000000 0.687500
vt 1.000000 0.937500
vt 1.000000 0.687500
vt 1.000000 0.937500
vt 1.000000 0.687500
vt 1.000000 0.937500
vt 0.125000 1.000000
vt 0.093750 0.968750
vt 0.093750 0.906250
vt 0.125000 0.875000
vt 0.031250 0.906250
vt 0.000000 0.875000
vt 0.031250 0.968750
vt 0.000000 1.000000
vt 0.218750 0.031250
vt 0.218750 0.062500
vt 0.125000 0.062500
vt 0.125000 0.031250
vt 0.218750 0.031250
vt 0.218750 0.062500
vt 0.125000 0.062500
vt 0.125000 0.031250
vt 0.125000 0.062500
vt 0.125000 0.031250
vt 0.218750 0.031250
vt 0.218750 0.062500
vt 0.125000 0.062500
vt 0.125000 0.031250
vt 0.218750 0.031250
vt 0.218750 0.062500
vt 0.906250 0.250000
vt 1.000000 0.312500
vt 1.000000 0.000000
vt 0.906250 0.062500
vt 0.625000 0.000000
vt 0.718750 0.062500
vt 0.625000 0.312500
vt 0.718750 0.250000
vt 0.218750 0.375000
vt 0.218750 0.312500
vt 0.687500 0.375000
vt 0.937500 0.375000
vt 0.218750 0.625000
vt 0.218750 0.000000
vt 0.218750 0.375000
vt 0.218750 0.312500
vt 0.218750 0.312500
vt 0.218750 0.000000
vt 0.125000 0.625000
vt 0.250000 0.750000
vt 0.125000 1.000000
vt 0.250000 0.875000
vt -0.000000 0.000000
vt -0.000000 0.812500
vt 0.062500 0.812500
vt 0.062500 -0.000000
vt -0.000000 -0.000000
vt -0.000000 0.812500
vt 0.062500 0.000000
vt 0.062500 0.062500
vn 1.0000 0.0000 0.0000
vn 0.7071 0.7071 0.0000
vn 0.7071 -0.7071 0.0000
vn 0.7071 0.0000 0.7071
vn 0.7071 0.0000 -0.7071
vn 0.0000 -1.0000 0.0000
vn 0.0000 0.0000 1.0000
vn 0.0000 1.0000 0.0000
vn 0.0000 0.0000 -1.0000
vn -0.7071 0.0000 0.7071
vn -0.7071 0.7071 0.0000
vn -0.7071 0.0000 -0.7071
vn -0.7071 -0.7071 0.0000
vn -0.4472 0.8944 0.0000
vn -0.4472 0.0000 -0.8944
vn -0.4472 -0.8944 0.0000
vn -0.4472 0.0000 0.8944
vn -1.0000 0.0000 0.0000
vn 0.0000 -0.8000 -0.6000
vn 0.0000 -0.8000 0.6000
vn 0.4472 0.8944 0.0000
vn 0.4472 0.0000 -0.8944
vn 0.4472 -0.8944 0.0000
vn 0.4472 0.0000 0.8944
usemtl warhammer
s off
f 3/1/1 4/2/1 2/3/1 1/4/1
f 2/5/2 4/6/2 6/7/2 5/8/2
f 3/1/3 1/9/3 7/10/3 8/11/3
f 1/9/4 2/12/4 5/13/4 7/10/4
f 3/14/5 8/15/5 6/7/5 4/6/5
f 8/11/6 7/10/6 11/16/6 12/17/6
f 7/10/7 5/13/7 9/18/7 11/16/7
f 5/8/8 6/7/8 10/19/8 9/20/8
f 6/7/9 8/15/9 12/21/9 10/19/9
f 11/16/10 9/18/10 13/22/10 15/23/10
f 9/20/11 10/19/11 14/24/11 13/25/11
f 10/19/12 12/21/12 16/26/12 14/24/12
f 12/17/13 11/16/13 15/23/13 16/27/13
f 13/25/14 14/24/14 18/28/14 17/29/14
f 14/24/15 16/26/15 20/30/15 18/28/15
f 16/27/16 15/23/16 19/31/16 20/32/16
f 15/23/17 13/22/17 17/33/17 19/31/17
f 18/34/18 20/35/18 24/36/18 22/37/18
f 20/35/18 19/38/18 23/39/18 24/36/18
f 19/38/18 17/40/18 21/41/18 23/39/18
f 17/40/18 18/34/18 22/37/18 21/41/18
f 23/42/7 21/43/7 25/44/7 27/45/7
f 21/46/8 22/47/8 26/48/8 25/49/8
f 22/47/9 24/50/9 28/51/9 26/48/9
f 24/52/6 23/42/6 27/45/6 28/53/6
f 26/54/1 28/55/1 32/56/1 30/57/1
f 28/55/1 27/58/1 31/59/1 32/56/1
f 27/58/1 25/60/1 29/61/1 31/59/1
f 25/60/1 26/54/1 30/57/1 29/61/1
f 33/62/19 29/63/19 73/64/19 77/65/19
f 29/61/1 30/57/1 34/66/1 33/67/1
f 34/68/6 33/62/6 77/65/6 78/69/6
f 31/70/7 29/63/7 73/64/7 75/71/7
f 30/72/20 34/73/20 78/74/20 74/75/20
f 30/76/9 32/77/9 76/78/9 74/79/9
f 31/80/6 75/81/6 80/82/6 35/83/6
f 32/84/6 31/80/6 35/83/6 36/85/6
f 76/86/6 32/84/6 36/85/6 79/87/6
f 79/88/9 36/89/9 38/90/9 83/91/9
f 36/89/1 35/92/1 37/93/1 38/90/1
f 35/94/7 80/95/7 84/96/7 37/97/7
f 37/98/6 84/99/6 83/100/6 38/101/6
f 41/102/18 39/103/18 40/104/18 42/105/18
f 40/106/11 43/107/11 44/108/11 42/105/11
f 41/109/13 46/110/13 45/111/13 39/112/13
f 39/112/10 45/111/10 43/113/10 40/114/10
f 41/102/12 42/105/12 44/108/12 46/115/12
f 46/110/6 50/116/6 49/117/6 45/111/6
f 45/111/7 49/117/7 47/118/7 43/113/7
f 43/107/8 47/119/8 48/120/8 44/108/8
f 44/108/9 48/120/9 50/121/9 46/115/9
f 49/117/4 53/122/4 51/123/4 47/118/4
f 47/119/2 51/124/2 52/125/2 48/120/2
f 48/120/5 52/125/5 54/126/5 50/121/5
f 50/116/3 54/127/3 53/122/3 49/117/3
f 51/124/21 55/128/21 56/129/21 52/125/21
f 52/125/22 56/129/22 58/130/22 54/126/22
f 54/127/23 58/131/23 57/132/23 53/122/23
f 53/122/24 57/132/24 55/133/24 51/123/24
f 56/134/1 60/135/1 62/136/1 58/137/1
f 58/137/1 62/136/1 61/138/1 57/139/1
f 57/139/1 61/138/1 59/140/1 55/141/1
f 55/141/1 59/140/1 60/135/1 56/134/1
f 61/142/7 65/143/7 63/144/7 59/145/7
f 59/146/8 63/147/8 64/148/8 60/149/8
f 60/150/9 64/151/9 66/152/9 62/153/9
f 62/154/6 66/155/6 65/156/6 61/157/6
f 64/158/18 68/159/18 70/160/18 66/161/18
f 66/161/18 70/160/18 69/162/18 65/163/18
f 65/163/18 69/162/18 67/164/18 63/165/18
f 63/165/18 67/164/18 68/159/18 64/158/18
f 71/166/19 77/65/19 73/64/19 67/167/19
f 67/164/18 71/168/18 72/169/18 68/159/18
f 72/170/6 78/69/6 77/65/6 71/166/6
f 69/171/7 75/71/7 73/64/7 67/167/7
f 68/172/20 74/75/20 78/74/20 72/173/20
f 68/174/9 74/79/9 76/78/9 70/175/9
f 69/176/6 81/177/6 80/82/6 75/81/6
f 70/178/6 82/179/6 81/177/6 69/176/6
f 76/86/6 79/87/6 82/179/6 70/178/6
f 79/88/9 83/91/9 86/180/9 82/181/9
f 82/182/18 86/183/18 85/184/18 81/185/18
f 81/185/7 85/184/7 84/96/7 80/95/7
f 85/186/6 86/187/6 83/100/6 84/99/6
